<svg width="220" height="230" viewBox="0 0 220 230" fill="none" xmlns="http://www.w3.org/2000/svg">
<ellipse cx="157.402" cy="151.116" rx="61.6485" ry="78.4845" fill="#478ADF"/>
<path d="M177.909 99.5153C177.909 144.74 113.988 202.759 89.4897 202.759C64.9913 202.759 89.4898 189.317 89.4898 144.092C89.4898 98.8679 109.35 62.2062 133.848 62.2062C158.347 62.2062 177.909 54.2907 177.909 99.5153Z" fill="#68A6F4"/>
<path d="M140.529 70.7561C140.529 110.111 99.4639 202.759 62.8751 202.759C26.2863 202.759 -20.7061 181.37 -20.7061 142.015C-20.7061 102.66 8.95503 70.7561 45.5438 70.7561C82.1326 70.7561 140.529 31.4008 140.529 70.7561Z" fill="#478ADF"/>
<path d="M82.5066 76.6234C82.5066 126.936 21.2719 171.459 2.16826 171.459C-16.9353 171.459 -11.2215 141.418 -11.2215 91.1057C-11.2215 40.7936 4.26505 0.00756836 23.3687 0.00756836C42.4723 0.00756836 82.5066 26.3113 82.5066 76.6234Z" fill="#387ED6"/>
</svg>
